<?xml version="1.0" encoding="iso-8859-1"?>
<!-- Generator: Adobe Illustrator 30.3.0, SVG Export Plug-In . SVG Version: 9.03 Build 0)  -->
<svg version="1.1" id="Layer_1" xmlns="http://www.w3.org/2000/svg" xmlns:xlink="http://www.w3.org/1999/xlink" x="0px" y="0px"
	 width="128px" height="128px" viewBox="0 0 128 128" enable-background="new 0 0 128 128" xml:space="preserve">
<g>
	<path fill="#009978" d="M127.901,76.272l-5.414-44.638c-0.819-6.75-6.548-11.827-13.348-11.827H18.859
		c-6.8,0-12.529,5.076-13.348,11.827L0.099,76.256c-0.761,6.276,2.952,12.234,8.922,14.315l46.251,16.123
		c5.744,2.002,11.997,1.998,17.739-0.012l45.987-16.102C124.957,88.494,128.662,82.54,127.901,76.272z"/>
	<polygon fill="#FFFFFF" points="95.248,67.226 89.394,44.091 96.75,44.091 96.75,38.853 76.746,38.85 74.354,44.091 64.044,66.679 
		53.735,44.091 51.344,38.853 31.274,38.853 31.274,44.091 38.629,44.091 32.775,67.226 25.599,67.226 25.599,72.464 47.75,72.464 
		47.75,67.226 39.529,67.226 45.383,44.091 46.537,44.091 59.487,72.464 68.602,72.464 81.552,44.091 82.641,44.091 88.495,67.226 
		80.273,67.226 80.273,72.464 102.424,72.464 102.424,67.226 	"/>
</g>
</svg>
