<svg width="85" height="85" viewBox="0 0 85 85" fill="none" xmlns="http://www.w3.org/2000/svg">
<circle cx="42.5" cy="42.5" r="42.125" fill="white" stroke="#E8E8E8" stroke-width="0.75"/>
<path d="M64.0438 46.6764L62.2183 31.4864C61.9424 29.1894 60.0108 27.4619 57.7183 27.4619H27.2812C24.9887 27.4619 23.0571 29.1894 22.7812 31.4864L20.9563 46.6711C20.6996 48.8067 21.9518 50.8342 23.9642 51.5424L39.5575 57.0288C41.494 57.7102 43.6022 57.7088 45.5379 57.0247L61.0416 51.5453C63.0509 50.8351 64.2999 48.8096 64.0438 46.6764ZM55.4546 45.3806H47.9866V43.5982H50.7583L48.7846 35.7256H48.4177L44.0518 45.3806H40.9788L36.6129 35.7256H36.2238L34.2502 43.5982H37.0218V45.3806H29.5538V43.5982H31.9732L33.9468 35.7256H31.467V33.9432H38.2334L39.0395 35.7256L42.5153 43.412L45.9911 35.7256L46.7975 33.9421L53.5414 33.9429V35.7253H51.0616L53.0352 43.5979H55.4546V45.3806Z" fill="#30332E"/>
</svg>
